<svg width="100%" height="100%" id="svg" viewBox="0 0 1440 590" xmlns="http://www.w3.org/2000/svg" class="transition duration-300 ease-in-out delay-150"><path d="M 0,600 C 0,600 0,200 0,200 C 108.22966507177034,209.6937799043062 216.45933014354068,219.38755980861242 325,213 C 433.5406698564593,206.61244019138758 542.3923444976076,184.14354066985646 619,166 C 695.6076555023924,147.85645933014354 739.9712918660289,134.03827751196172 820,143 C 900.0287081339711,151.96172248803828 1015.7224880382776,183.70334928229664 1125,197 C 1234.2775119617224,210.29665071770336 1337.1387559808613,205.14832535885168 1440,200 C 1440,200 1440,600 1440,600 Z" stroke="none" stroke-width="0" fill="#f6e0c1" fill-opacity="0.53" class="transition-all duration-300 ease-in-out delay-150 path-0"></path><path d="M 0,600 C 0,600 0,400 0,400 C 68.50717703349281,400.0287081339713 137.01435406698562,400.0574162679426 253,380 C 368.9856459330144,359.9425837320574 532.4497607655502,319.799043062201 623,326 C 713.5502392344498,332.200956937799 731.1866028708135,384.7464114832536 810,407 C 888.8133971291865,429.2535885167464 1028.8038277511962,421.21531100478467 1144,415 C 1259.1961722488038,408.78468899521533 1349.598086124402,404.39234449760767 1440,400 C 1440,400 1440,600 1440,600 Z" stroke="none" stroke-width="0" fill="#f6e0c1" fill-opacity="1" class="transition-all duration-300 ease-in-out delay-150 path-1"></path></svg>